<svg width="178" height="159" viewBox="0 0 178 159" fill="none" xmlns="http://www.w3.org/2000/svg">
<ellipse cx="92.4671" cy="84.3413" rx="71.1377" ry="7.81437" fill="#E6E7E8"/>
<path d="M47.1975 19.4012V34.7605L65.2514 42.0359V19.4012H47.1975Z" fill="#8FC549"/>
<path d="M71.449 11.0479V46.0779L89.5029 53.3533V11.0479H71.449Z" fill="#E75766"/>
<path d="M96.2395 0V56.0479L114.293 63.3233V0H96.2395Z" fill="#8FC549"/>
<path d="M8.39526 68.1736V87.3054L45.3114 57.3952L115.102 87.3054L151.21 60.3593L154.443 68.1736L163.335 40.9581L135.85 45.5389L143.126 48.7724L115.102 69.2515L45.3114 38.8024L8.39526 68.1736Z" fill="#126BA5"/>
<path d="M42.6181 113.904L32.8917 113.49C32.4318 113.49 30.9142 116.249 28.3388 121.768C25.7635 127.24 23.5331 132.552 21.6476 137.703C19.7621 142.853 18.8193 146.578 18.8193 148.878C18.8193 151.131 19.5321 152.258 20.9578 152.258C22.4294 152.258 24.2689 150.763 26.4763 147.774C26.7063 147.498 26.9362 147.36 27.1661 147.36C27.3961 147.36 27.5111 147.567 27.5111 147.981C27.5111 148.395 27.1891 149.154 26.5453 150.257C25.9475 151.361 25.1427 152.557 24.1309 153.845C23.1192 155.086 21.8085 156.19 20.199 157.156C18.5894 158.167 16.9338 158.673 15.2323 158.673C12.7029 158.673 11.4382 156.926 11.4382 153.431C11.4382 149.108 13.6227 141.75 17.9915 131.356C21.1187 124.044 23.993 117.974 26.6143 113.145H25.7175L18.6124 113.007C14.6574 113.007 11.2083 113.513 8.26507 114.525C6.65548 115.077 5.36782 115.904 4.40207 117.008C3.48231 118.066 3.02243 119.354 3.02243 120.871L3.57429 123.768C3.57429 124.228 3.34435 124.458 2.88447 124.458C2.28662 124.458 1.80375 123.883 1.43584 122.734C1.06794 121.538 0.883987 120.503 0.883987 119.629C0.883987 117.468 1.38986 115.629 2.40159 114.111C3.41333 112.593 4.79297 111.444 6.54051 110.662C9.85165 109.19 13.5077 108.454 17.5087 108.454C21.5096 108.454 26.0394 108.707 31.0981 109.213C36.1568 109.673 40.7556 109.903 44.8945 109.903C49.0334 109.903 51.7237 109.259 52.9654 107.972C53.1034 108.293 53.1724 108.615 53.1724 108.937C53.1724 110.455 52.2066 111.674 50.2751 112.593C48.3436 113.467 45.7913 113.904 42.6181 113.904ZM46.7123 129.425L50.2304 129.494H50.9202C50.2304 130 49.2417 131.494 47.954 133.978C46.7123 136.461 45.7696 138.347 45.1257 139.634C44.5279 140.876 43.8381 142.577 43.0563 144.739C42.3205 146.854 41.9525 148.579 41.9525 149.913C41.9525 151.246 42.4124 151.913 43.3322 151.913C43.93 151.867 44.7578 151.453 45.8155 150.671C46.9193 149.844 47.816 148.993 48.5058 148.119C49.2416 147.199 50.0234 146.05 50.8512 144.67C51.725 143.244 52.4608 142.026 53.0587 141.014C53.7025 139.956 54.0704 139.427 54.1624 139.427C54.4843 139.427 54.6452 139.864 54.6452 140.738C54.6452 141.566 54.4153 142.371 53.9554 143.152C51.9779 146.417 50.3454 148.924 49.0577 150.671C47.77 152.419 46.2064 154.029 44.3669 155.5C42.5734 156.926 40.9408 157.639 39.4692 157.639C36.8479 157.639 35.5372 155.707 35.5372 151.844C35.5372 149.223 36.0431 146.257 37.0548 142.945C38.0666 139.634 39.5612 136.438 41.5387 133.357C39.9291 134.645 38.3195 135.288 36.7099 135.288C36.204 135.288 35.6752 135.173 35.1233 134.943C31.8582 141.382 30.0876 144.601 29.8117 144.601C29.5818 144.601 29.4668 144.233 29.4668 143.497C29.4668 142.715 29.7427 141.658 30.2946 140.324C30.8924 138.944 31.5133 137.634 32.1571 136.392C32.8469 135.15 33.2148 134.461 33.2608 134.323C31.6052 133.495 30.7775 132.161 30.7775 130.322C30.7775 129.402 31.0534 128.574 31.6052 127.838C32.2031 127.103 33.0079 126.735 34.0196 126.735C35.0314 126.735 35.8591 127.057 36.503 127.7C36.411 127.976 36.365 128.39 36.365 128.942C36.365 130.184 36.8019 131.172 37.6757 131.908C38.5954 132.598 39.6991 132.943 40.9868 132.943C41.3547 132.943 41.6306 132.92 41.8146 132.874C43.4242 130.575 45.0567 129.425 46.7123 129.425ZM79.6124 129.563L83.0615 129.632H83.7513C82.2337 130.874 80.3712 134.024 78.1638 139.082C75.9564 144.095 74.8527 147.751 74.8527 150.051C74.8527 151.246 75.2666 151.844 76.0943 151.844C78.7616 151.844 82.1648 147.912 86.3037 140.048C86.4876 139.726 86.6486 139.565 86.7866 139.565C87.0625 139.565 87.2004 140.002 87.2004 140.876C87.2004 141.704 86.9705 142.509 86.5106 143.29C80.8541 152.81 76.1173 157.57 72.3003 157.57C69.817 157.57 68.5753 155.661 68.5753 151.844C68.5753 148.993 69.0582 146.188 70.0239 143.428C64.7813 152.718 59.9296 157.363 55.4687 157.363C52.3875 157.363 50.8469 155.247 50.8469 151.016C50.8469 147.797 51.5367 144.532 52.9164 141.221C54.342 137.91 56.3655 135.104 58.9868 132.805C61.6081 130.46 64.4824 129.287 67.6096 129.287C69.0812 129.287 70.4608 129.632 71.7485 130.322C73.0361 130.966 73.8869 132.023 74.3008 133.495C74.8067 132.437 75.5885 131.517 76.6462 130.736C77.7039 129.954 78.6927 129.563 79.6124 129.563ZM73.8869 134.116C73.427 132.644 72.3463 131.908 70.6448 131.908C67.6096 131.908 64.6663 134.024 61.8151 138.255C58.9638 142.44 57.5382 146.188 57.5382 149.499C57.5382 150.924 58.09 151.637 59.1937 151.637C60.3894 151.637 61.7921 150.901 63.4016 149.43C65.0112 147.912 66.4599 146.142 67.7475 144.118C70.5988 139.611 72.6452 136.277 73.8869 134.116ZM111.458 139.496C111.734 139.496 111.872 139.933 111.872 140.807C111.872 141.681 111.481 142.761 110.7 144.049C109.964 145.337 109.366 146.326 108.906 147.015C108.492 147.659 107.756 148.717 106.699 150.189C105.641 151.66 104.721 152.718 103.939 153.362C103.158 154.006 102.169 154.764 100.973 155.638C98.9497 157.11 96.3054 157.846 93.0402 157.846C89.821 157.846 87.4757 157.041 86.004 155.431C84.5784 153.776 83.8656 151.637 83.8656 149.016C83.8656 144.187 85.5672 139.772 88.9703 135.771C92.4194 131.724 96.4663 129.701 101.111 129.701C103.181 129.701 104.836 130.253 106.078 131.356C107.319 132.414 107.94 133.702 107.94 135.219C107.94 136.691 107.526 137.979 106.699 139.082C105.871 140.186 104.928 140.738 103.87 140.738C101.801 140.738 100.766 139.887 100.766 138.186C100.766 137.634 101.341 137.105 102.491 136.599C102.951 136.415 103.365 136.07 103.732 135.564C104.1 135.058 104.284 134.392 104.284 133.564C104.284 132.368 103.64 131.77 102.353 131.77C99.5935 131.77 96.8572 133.771 94.1439 137.772C91.4306 141.773 90.074 145.659 90.074 149.43C90.074 153.155 91.7066 155.017 94.9717 155.017C99.5245 155.017 103.962 151.499 108.285 144.463C109.159 143.083 109.872 141.911 110.424 140.945C111.022 139.979 111.366 139.496 111.458 139.496ZM139.493 143.428C137.883 146.142 136.25 148.602 134.595 150.809C131.054 155.408 127.559 157.708 124.11 157.708C122.224 157.708 120.798 156.765 119.833 154.879C118.913 152.994 118.453 150.901 118.453 148.602C118.453 144.003 119.143 141.704 120.523 141.704C122.684 141.704 124.684 141.221 126.524 140.255C128.364 139.243 129.283 137.933 129.283 136.323C129.283 135.035 128.547 134.392 127.076 134.392C123.903 134.392 120.385 137.841 116.522 144.739C116.154 145.429 115.372 147.038 114.176 149.568C113.026 152.051 111.992 153.937 111.072 155.224C110.198 156.512 109.324 157.156 108.451 157.156H104.243C105.668 154.488 107.761 149.108 110.52 141.014C113.325 132.874 115.395 127.424 116.729 124.665C116.775 124.573 117.05 123.975 117.556 122.872C118.108 121.768 118.476 121.009 118.66 120.595C118.89 120.181 119.304 119.4 119.902 118.25C120.5 117.1 120.982 116.249 121.35 115.697C121.718 115.146 122.224 114.364 122.868 113.352C123.512 112.294 124.087 111.49 124.592 110.938C125.098 110.386 125.696 109.742 126.386 109.006C127.076 108.224 127.72 107.65 128.318 107.282C129.881 106.362 131.307 105.902 132.594 105.902C135.124 105.902 136.388 107.052 136.388 109.351C136.388 112.57 134.434 116.847 130.525 122.182C126.662 127.47 122.293 132.483 117.418 137.22L116.177 140.669C118.384 137.818 120.89 135.334 123.696 133.219C126.501 131.057 129.076 129.977 131.422 129.977C132.755 129.977 133.79 130.299 134.526 130.943C135.308 131.586 135.699 132.46 135.699 133.564C135.699 136.093 134.572 138.14 132.318 139.703C130.111 141.221 127.559 142.21 124.661 142.669C125.075 147.452 125.742 150.372 126.662 151.43C127.122 151.936 127.697 152.189 128.386 152.189C129.076 152.189 130.019 151.775 131.215 150.947C132.41 150.12 133.376 149.223 134.112 148.257C134.894 147.245 135.699 146.05 136.526 144.67C137.4 143.29 138.136 142.095 138.734 141.083C139.378 140.071 139.746 139.565 139.838 139.565C140.113 139.565 140.251 140.025 140.251 140.945C140.251 141.819 139.998 142.646 139.493 143.428ZM132.732 107.696C130.157 107.696 125.65 115.973 119.212 132.529C125.098 125.631 129.237 119.813 131.629 115.077C133.008 112.593 133.698 110.547 133.698 108.937C133.698 108.109 133.376 107.696 132.732 107.696ZM150.953 109.006H166.543C163.37 111.444 159.001 118.986 153.436 131.632C152.011 134.852 150.378 139.082 148.538 144.325C146.745 149.522 145.848 153.316 145.848 155.707C145.848 156.351 145.94 156.834 146.124 157.156H137.225C138.513 151.591 141.226 143.865 145.365 133.978C150.884 120.825 154.448 113.352 156.057 111.559C152.148 111.651 148.171 112.455 144.124 113.973C140.123 115.445 137.8 117.215 137.156 119.285C137.11 119.423 137.018 119.492 136.88 119.492C136.467 119.492 136.26 119.193 136.26 118.595C136.26 118.503 136.306 118.273 136.398 117.905C137.271 115.376 138.536 113.421 140.192 112.041C141.847 110.662 143.457 109.811 145.02 109.489C146.63 109.167 148.607 109.006 150.953 109.006ZM177.806 117.629C175.552 119.193 173.023 123.194 170.218 129.632H177.185L177.254 129.701C177.254 129.931 177.001 130.345 176.495 130.943C175.989 131.494 175.552 131.77 175.184 131.77H169.252C165.619 140.784 163.802 146.578 163.802 149.154C163.802 150.901 164.354 151.775 165.458 151.775C167.067 151.775 168.953 150.395 171.114 147.636C171.62 147.038 172.287 146.027 173.115 144.601C175.23 141.198 176.334 139.496 176.426 139.496C176.702 139.496 176.84 139.864 176.84 140.6C176.794 142.348 174.885 145.751 171.114 150.809C169.873 152.465 168.378 154.006 166.631 155.431C164.883 156.857 163.296 157.57 161.871 157.57C159.249 157.57 157.939 155.73 157.939 152.051C157.939 148.97 158.675 145.429 160.146 141.428V141.359C159.272 142.968 158.514 144.164 157.87 144.946C157.272 145.728 156.927 146.119 156.835 146.119C156.651 146.119 156.559 145.843 156.559 145.291C156.559 144.693 156.858 143.75 157.456 142.463C158.1 141.175 158.951 139.496 160.008 137.427C161.112 135.357 162.009 133.472 162.699 131.77H158.077C157.939 131.77 157.87 131.678 157.87 131.494C157.87 131.264 158.031 130.897 158.353 130.391C158.721 129.885 158.997 129.632 159.181 129.632H164.423C167.734 121.676 171.091 117.698 174.495 117.698C176.472 117.698 177.576 117.675 177.806 117.629Z" fill="#126BA5"/>
</svg>
